<svg width="28" height="28" viewBox="0 0 28 28" fill="none" xmlns="http://www.w3.org/2000/svg">
<path fill-rule="evenodd" clip-rule="evenodd" d="M2.40682 0.0194156C2.09614 0.0579028 1.82321 0.139225 1.5387 0.278079C0.684258 0.695093 0.116588 1.50885 0.0148469 2.46255C-0.00494898 2.64813 -0.00494898 25.3498 0.0148469 25.5354C0.11775 26.5 0.696713 27.3197 1.56866 27.7352C1.84594 27.8673 2.15919 27.9542 2.4673 27.9845C2.67208 28.0047 25.3234 28.0054 25.5268 27.9852C25.8564 27.9526 26.1686 27.8641 26.4613 27.7202C27.3212 27.2978 27.8911 26.4774 27.9853 25.5266C28.005 25.328 28.0049 2.64693 27.9852 2.46255C27.8967 1.63304 27.4543 0.903717 26.7621 0.446301C26.4111 0.214367 25.9729 0.0595024 25.5356 0.0128393C25.4451 0.00317313 21.7743 -0.000860155 13.9766 0.000151585C4.68904 0.00136841 2.5235 0.00496418 2.40682 0.0194156ZM23.1187 13.0477C23.859 13.1109 24.4873 13.2377 25.0361 13.4348L25.1694 13.4827V14.7594C25.1694 15.4616 25.1655 16.0361 25.1606 16.0361C25.1558 16.0361 25.0989 16.003 25.0342 15.9624C24.5556 15.6628 24.0189 15.4514 23.4002 15.319C22.1549 15.0525 21.0315 15.2111 20.5014 15.7285C20.255 15.969 20.152 16.2796 20.211 16.6045C20.2506 16.8229 20.3325 16.9751 20.5134 17.1669C20.8502 17.524 21.2981 17.7806 22.4215 18.2602C23.5044 18.7226 24.1438 19.0932 24.649 19.5516C25.1165 19.9757 25.4444 20.5036 25.5863 21.0606C25.6805 21.4302 25.71 21.7251 25.6984 22.1817C25.6741 23.1371 25.4059 23.8241 24.8208 24.4291C24.5514 24.7077 24.2799 24.9051 23.8998 25.0989C23.2901 25.4096 22.6304 25.5785 21.6696 25.6699C21.369 25.6984 20.59 25.7094 20.2478 25.6898C19.121 25.6254 18.231 25.4344 17.4959 25.0991C17.4116 25.0606 17.3394 25.024 17.3354 25.0177C17.3298 25.009 17.3294 22.9148 17.3348 22.3754L17.3358 22.282L17.3676 22.3071C17.8299 22.6719 18.2432 22.9233 18.6892 23.1112C19.8798 23.6126 21.3289 23.6657 22.1508 23.2382C22.4014 23.1078 22.5753 22.9424 22.6839 22.7312C22.7591 22.5848 22.7839 22.4713 22.7831 22.2774C22.7817 21.9437 22.6779 21.7188 22.3948 21.4361C22.0217 21.0636 21.5534 20.8062 20.2888 20.2786C19.3132 19.8716 18.7416 19.5201 18.2373 19.0169C17.6974 18.4782 17.4228 17.9276 17.3064 17.1504C17.2774 16.9567 17.2814 16.3212 17.3132 16.0976C17.4128 15.3947 17.6908 14.8272 18.1827 14.3222C18.8341 13.6533 19.7796 13.2415 21.0407 13.0773C21.1272 13.0661 21.281 13.0503 21.3825 13.0422C21.484 13.0341 21.5947 13.0253 21.6286 13.0225C21.7929 13.0092 22.884 13.0277 23.1187 13.0477ZM16.2421 14.416V15.5439H14.4853H12.7286V20.5411V25.5383H11.3341H9.93966V20.5411V15.5439H8.19658H6.4535V14.416V13.288H11.3478H16.2421V14.416Z" fill="#3178C6"/>
</svg>
